<svg xmlns="http://www.w3.org/2000/svg" viewBox="0 0 47.11 52.64" width="32" height="32">
    <defs>
        <style>
            .cls-1{isolation:isolate;}.cls-2{fill:#ffcd52;mix-blend-mode:multiply;}.cls-3{fill:#d54400;}.cls-4{fill:#000051;}</style>
    </defs>
    <title>Asset 3</title>
    <g class="cls-1">
        <g id="Layer_2" data-name="Layer 2">
            <g id="Layer_1-2" data-name="Layer 1">
                <path class="cls-2"
                    d="M2.84,26.28,20.72,16a5.68,5.68,0,0,1,5.68,0L44.27,26.28a5.68,5.68,0,0,1,2.84,4.92V16a5.68,5.68,0,0,0-2.84-4.92L26.39.76a5.68,5.68,0,0,0-5.68,0L2.84,11.08A5.68,5.68,0,0,0,0,16v15.2A5.68,5.68,0,0,1,2.84,26.28Z" />
                <path class="cls-3"
                    d="M2.78,41.52l.06,0L20.72,31.15a5.68,5.68,0,0,1,5.68,0L44.27,41.47l.06,0a5.67,5.67,0,0,0,2.78-4.87V31.19a5.68,5.68,0,0,0-2.84-4.92L26.39,16a5.68,5.68,0,0,0-5.68,0L2.84,26.28A5.68,5.68,0,0,0,0,31.19v5.45A5.67,5.67,0,0,0,2.78,41.52Z" />
                <path class="cls-4"
                    d="M26.39,31.15a5.68,5.68,0,0,0-5.68,0L2.84,41.47l-.06,0,.06,0L20.72,51.88a5.68,5.68,0,0,0,5.68,0L44.27,41.56l.06,0-.06,0Z" />
            </g>
        </g>
    </g>
</svg>