<svg xmlns="http://www.w3.org/2000/svg" viewBox="0 0 47.11 52.64"><path d="M2.84 26.28L20.72 16a5.68 5.68 0 015.68 0l17.87 10.28a5.68 5.68 0 012.84 4.92V16a5.68 5.68 0 00-2.84-4.92L26.39.76a5.68 5.68 0 00-5.68 0L2.84 11.08A5.68 5.68 0 000 16v15.2a5.68 5.68 0 012.84-4.92z" style="mix-blend-mode:multiply" fill="#ffcd52"/><path fill="#d54400" d="M2.78 41.52h.06l17.88-10.37a5.68 5.68 0 015.68 0l17.87 10.32h.06a5.67 5.67 0 002.78-4.87v-5.41a5.68 5.68 0 00-2.84-4.92L26.39 16a5.68 5.68 0 00-5.68 0L2.84 26.28A5.68 5.68 0 000 31.19v5.45a5.67 5.67 0 002.78 4.88z"/><path fill="#000051" d="M26.39 31.15a5.68 5.68 0 00-5.68 0L2.84 41.47h-.06.06l17.88 10.41a5.68 5.68 0 005.68 0l17.87-10.32h.06-.06z"/></svg>